<svg width="24" height="26" viewBox="0 0 24 26" fill="none" xmlns="http://www.w3.org/2000/svg">
<g id="LockIcon">
<path id="Vector" d="M19 11.9233H5C3.89543 11.9233 3 12.8876 3 14.0772V21.6156C3 22.8052 3.89543 23.7695 5 23.7695H19C20.1046 23.7695 21 22.8052 21 21.6156V14.0772C21 12.8876 20.1046 11.9233 19 11.9233Z" stroke="white" stroke-width="1.5" stroke-linecap="round" stroke-linejoin="round"/>
<path id="Vector_2" d="M7 11.9233V7.61557C7 6.18748 7.52678 4.81789 8.46447 3.80807C9.40215 2.79826 10.6739 2.23096 12 2.23096C13.3261 2.23096 14.5979 2.79826 15.5355 3.80807C16.4732 4.81789 17 6.18748 17 7.61557V11.9233" stroke="white" stroke-width="1.5" stroke-linecap="round" stroke-linejoin="round"/>
</g>
</svg>
