<svg width="23" height="21" viewBox="0 0 23 21" fill="none" xmlns="http://www.w3.org/2000/svg">
<g id="logo" clip-path="url(#clip0_1_311)">
<path id="Vector" d="M22.8168 19.1726L17.4477 14.2917C18.7823 12.8328 19.5863 10.9593 19.5863 8.91797C19.5863 4.27628 15.4325 0.5 10.3269 0.5C5.22112 0.5 1.06732 4.27628 1.06732 8.91797C1.06732 13.5593 5.22112 17.3353 10.3269 17.3353C12.5722 17.3353 14.6331 16.6045 16.238 15.3912L21.6072 20.2722C21.7741 20.4241 21.9931 20.5 22.212 20.5C22.4308 20.5 22.6498 20.4241 22.8169 20.2722C23.1509 19.9685 23.1509 19.4763 22.8168 19.1726ZM2.77802 8.91797C2.77802 5.13381 6.16439 2.05518 10.3269 2.05518C14.4892 2.05518 17.8755 5.13381 17.8755 8.91797C17.8755 12.7018 14.4892 15.7801 10.3269 15.7801C6.16439 15.7801 2.77802 12.7018 2.77802 8.91797Z" fill="#CBCBCB"/>
</g>
<defs>
<clipPath id="clip0_1_311">
<rect width="22" height="20" fill="white" transform="translate(0.579529 0.5)"/>
</clipPath>
</defs>
</svg>
